<svg class="animated" id="freepik_stories-software-tester" xmlns="http://www.w3.org/2000/svg" viewBox="0 0 750 500" version="1.1" xmlns:xlink="http://www.w3.org/1999/xlink" xmlns:svgjs="http://svgjs.com/svgjs"><style>svg#freepik_stories-software-tester:not(.animated) .animable {opacity: 0;}svg#freepik_stories-software-tester.animated #freepik--Screen--inject-150 {animation: 2.2s 1 forwards cubic-bezier(.36,-0.01,.5,1.38) slideDown,6s Infinite  linear heartbeat;animation-delay: 0s,2.2s;}svg#freepik_stories-software-tester.animated #freepik--Bugs--inject-150 {animation: 1.5s Infinite  linear floating;animation-delay: 0s;}svg#freepik_stories-software-tester.animated #freepik--Character--inject-150 {animation: 6s Infinite  linear heartbeat;animation-delay: 0s;}svg#freepik_stories-software-tester.animated #freepik--speech-bubble--inject-150 {animation: 6s Infinite  linear shake;animation-delay: 0s;}            @keyframes slideDown {                0% {                    opacity: 0;                    transform: translateY(-30px);                }                100% {                    opacity: 1;                    transform: translateY(0);                }            }                    @keyframes heartbeat {                0% {                    transform: scale(1);                }                10% {                    transform: scale(1.1);                }                30% {                    transform: scale(1);                }                40% {                    transform: scale(1);                }                50% {                    transform: scale(1.1);                }                60% {                    transform: scale(1);                }                100% {                    transform: scale(1);                }            }                    @keyframes floating {                0% {                    opacity: 1;                    transform: translateY(0px);                }                50% {                    transform: translateY(-10px);                }                100% {                    opacity: 1;                    transform: translateY(0px);                }            }                    @keyframes shake {                10%, 90% {                    transform: translate3d(-1px, 0, 0);                  }                  20%, 80% {                    transform: translate3d(2px, 0, 0);                  }                  30%, 50%, 70% {                    transform: translate3d(-4px, 0, 0);                  }                  40%, 60% {                    transform: translate3d(4px, 0, 0);                  }            }        </style><g id="freepik--background-complete--inject-150" class="animable" style="transform-origin: 374.995px 252.739px;"><path d="M131.72,454.89l-25.6-.79.25-8.1a5.32,5.32,0,0,0-2.84-4.81,35.34,35.34,0,0,1-3.1-1.91,5.41,5.41,0,0,0-5.64-.4l-7.08,3.8L75.6,420.1l7.09-3.79a5.42,5.42,0,0,0,2.78-4.92,34.06,34.06,0,0,1,.13-3.64,5.34,5.34,0,0,0-2.43-5l-6.89-4.27,13.5-21.76L96.65,381a5.26,5.26,0,0,0,5.51,0c.54-.33,1.11-.65,1.68-1s1.15-.6,1.73-.87a5.25,5.25,0,0,0,3.05-4.61l.25-8.06,25.59.8-.25,8a5.21,5.21,0,0,0,2.71,4.79,34.61,34.61,0,0,1,3.38,2.1,5.22,5.22,0,0,0,5.49.29l7.08-3.79L165,401.24,157.9,405a5.4,5.4,0,0,0-2.79,4.92,34,34,0,0,1-.11,3.64,5.32,5.32,0,0,0,2.44,5l6.86,4.25-13.49,21.76L144,440.41a5.39,5.39,0,0,0-5.62,0c-.52.32-1,.62-1.59.91s-1.11.57-1.66.84a5.33,5.33,0,0,0-3.13,4.63Zm-24.57-1.76,23.6.73.22-7.05a6.34,6.34,0,0,1,3.7-5.51c.54-.25,1.08-.52,1.61-.81s1.05-.58,1.56-.89a6.36,6.36,0,0,1,6.66,0l6,3.72,12.45-20.06-6-3.73a6.32,6.32,0,0,1-2.91-6,32.13,32.13,0,0,0,.11-3.54,6.37,6.37,0,0,1,3.32-5.82l6.2-3.33L152.46,380l-6.19,3.32a6.22,6.22,0,0,1-6.54-.35,35,35,0,0,0-3.28-2,6.19,6.19,0,0,1-3.24-5.7l.22-7-23.59-.74-.22,7.06A6.26,6.26,0,0,1,106,380c-.57.26-1.13.55-1.69.84s-1.1.61-1.63.94a6.25,6.25,0,0,1-6.55,0l-6-3.73L77.66,398.13l6,3.74a6.32,6.32,0,0,1,2.9,6,34.6,34.6,0,0,0-.12,3.53,6.38,6.38,0,0,1-3.31,5.82L77,420.51l11.16,20.82,6.2-3.33a6.38,6.38,0,0,1,6.68.46,33.28,33.28,0,0,0,3,1.85,6.33,6.33,0,0,1,3.36,5.72Zm13.16-21.79a20.83,20.83,0,0,1-6-.89,20.66,20.66,0,1,1,18-3h0A20.8,20.8,0,0,1,120.31,431.34Zm0-40.33a19.66,19.66,0,1,0,11.49,35.63h0A19.67,19.67,0,0,0,120.28,391Z" style="fill: rgb(235, 235, 235); transform-origin: 120.3px 410.675px;" id="elxnsycicrahl" class="animable"></path><path d="M53.65,212.82a2.68,2.68,0,0,1,1.31,2.5c0,.28,0,.56,0,.84s0,.56,0,.84a2.68,2.68,0,0,1-1.31,2.49l-3,1.74L56.3,231l3-1.74a2.7,2.7,0,0,1,2.83.1,15,15,0,0,0,1.46.85,2.68,2.68,0,0,1,1.48,2.39v3.47H76.42v-3.47a2.68,2.68,0,0,1,1.48-2.39,15,15,0,0,0,1.46-.85,2.7,2.7,0,0,1,2.83-.1l3,1.74,5.66-9.81-3-1.75A2.68,2.68,0,0,1,86.53,217c0-.28,0-.55,0-.83s0-.56,0-.84a2.68,2.68,0,0,1,1.31-2.5l3-1.73-5.66-9.82-3,1.74a2.7,2.7,0,0,1-2.83-.1,16.23,16.23,0,0,0-1.46-.84,2.69,2.69,0,0,1-1.49-2.4V196.2H65.08v3.47a2.69,2.69,0,0,1-1.49,2.4,16.23,16.23,0,0,0-1.46.84,2.7,2.7,0,0,1-2.83.1l-3-1.74-5.66,9.82Zm17.1-5.95a9.28,9.28,0,1,1-9.28,9.29A9.29,9.29,0,0,1,70.75,206.87Z" style="fill: rgb(235, 235, 235); transform-origin: 70.745px 216.135px;" id="elr51apmcys38" class="animable"></path><path d="M662.15,116.9a2.71,2.71,0,0,1,1.32,2.5c0,.28,0,.55,0,.83s0,.57,0,.84a2.69,2.69,0,0,1-1.32,2.49l-3,1.74,5.66,9.81,3-1.73a2.7,2.7,0,0,1,2.83.1,15,15,0,0,0,1.46.84,2.7,2.7,0,0,1,1.48,2.4v3.46h11.34v-3.46a2.7,2.7,0,0,1,1.48-2.4,15,15,0,0,0,1.46-.84,2.7,2.7,0,0,1,2.83-.1l3,1.73,5.66-9.81-3-1.74a2.68,2.68,0,0,1-1.31-2.49c0-.28,0-.56,0-.84s0-.55,0-.83a2.68,2.68,0,0,1,1.31-2.5l3-1.74-5.66-9.81-3,1.74a2.7,2.7,0,0,1-2.83-.1,16.33,16.33,0,0,0-1.46-.85,2.67,2.67,0,0,1-1.49-2.39v-3.47H673.58v3.47a2.67,2.67,0,0,1-1.49,2.39,16.33,16.33,0,0,0-1.46.85,2.7,2.7,0,0,1-2.83.1l-3-1.74-5.66,9.81Zm17.1-6a9.28,9.28,0,1,1-9.28,9.28A9.29,9.29,0,0,1,679.25,111Z" style="fill: rgb(235, 235, 235); transform-origin: 679.245px 120.23px;" id="eljnu36x130da" class="animable"></path><path d="M455.32,460.22a3.68,3.68,0,0,1-2.57,6.31,3.87,3.87,0,0,1-2.68-1l-16.4-16.64c-.18,0-.24-.17-.3-.35a.87.87,0,0,0-.17-.11,1.52,1.52,0,0,1-.18-.47.32.32,0,0,1-.17-.23c-.06-.12-.06-.3-.12-.35s-.11-.24-.11-.3v-.4c0-.12-.06-.18-.06-.35s.06-.24.06-.3v-.4c0-.12.11-.18.11-.24s.06-.29.12-.46.06-.06.06-.12a3.23,3.23,0,0,1,.29-.53.11.11,0,0,1,.12-.11,1,1,0,0,1,.35-.41l16.4-16.63a3.81,3.81,0,0,1,5.25,0,3.69,3.69,0,0,1,0,5.25l-13.83,13.95Z" style="fill: rgb(235, 235, 235); transform-origin: 444.493px 446.306px;" id="elfteod609139" class="animable"></path><path d="M470.2,462.09l14.3-34a3.23,3.23,0,0,1,4.26-1.69,3.15,3.15,0,0,1,1.63,4.14l-14.3,34.08a3.22,3.22,0,0,1-3,1.93,2.73,2.73,0,0,1-1.17-.24A3.15,3.15,0,0,1,470.2,462.09Z" style="fill: rgb(235, 235, 235); transform-origin: 480.287px 446.341px;" id="el9hqp9zl8m0u" class="animable"></path><path d="M518.64,448.38a.06.06,0,0,1-.06.06,2.61,2.61,0,0,1-.41.4l-16.4,16.64a3.81,3.81,0,0,1-5.25,0,3.71,3.71,0,0,1,0-5.26l13.83-13.94-13.83-13.95a3.69,3.69,0,0,1,0-5.25,3.81,3.81,0,0,1,5.25,0l16.4,16.63a2.64,2.64,0,0,1,.41.41c.06,0,.06.11.06.11.11.24.23.35.29.53s.06.06.06.12a3.43,3.43,0,0,0,.17.52c0,.06.06.06.06.18v.4c0,.06.06.24.06.3s-.06.23-.06.29V447c0,.06-.06.06-.06.12-.11.23-.11.41-.17.53s-.06.06-.06.17S518.75,448.14,518.64,448.38Z" style="fill: rgb(235, 235, 235); transform-origin: 507.352px 446.28px;" id="eluwxlzkk1u6o" class="animable"></path><path d="M63.76,98.71c0-1.37.18-5,.18-6.6,0-6.7-2.38-9.73-8.62-9.92-2.94-.18-4.68-1.92-4.68-4.4s1.74-4.22,4.68-4.41c6.24-.27,8.62-3.21,8.62-10,0-1.56-.18-5.23-.18-6.61,0-8.9,3.76-14.59,18-17.71,2.84-.64,5,1.1,5,3.76a3.87,3.87,0,0,1-2.57,3.77C75.33,49.34,74,52.19,74,58.43c0,1.83.18,4.86.18,6.79,0,7.15-3.48,10.64-9.54,12.57,6.15,2,9.54,5.41,9.54,12.57,0,1.93-.18,5-.18,6.79,0,6.24,1.29,9.09,10.19,11.84a3.86,3.86,0,0,1,2.57,3.76c0,2.67-2.21,4.41-5,3.77C67.52,113.4,63.76,107.71,63.76,98.71Z" style="fill: rgb(235, 235, 235); transform-origin: 68.701px 77.79px;" id="ela2105t36yoj" class="animable"></path><path d="M117.54,56.77c0,1.38-.18,5-.18,6.61,0,6.79,2.47,9.73,8.72,10,2.84.19,4.58,1.93,4.58,4.41s-1.74,4.22-4.58,4.4c-6.25.19-8.72,3.22-8.72,9.92,0,1.56.18,5.23.18,6.6,0,9-3.76,14.69-18,17.81-2.84.64-5-1.1-5-3.77A3.81,3.81,0,0,1,97.17,109c8.81-2.75,10.09-5.6,10.09-11.84,0-1.83-.18-4.86-.18-6.79,0-7.16,3.49-10.64,9.54-12.57-6.15-2-9.54-5.42-9.54-12.57,0-1.93.18-5,.18-6.79,0-6.24-1.28-9.09-10.09-11.84a3.81,3.81,0,0,1-2.66-3.77c0-2.66,2.2-4.4,5-3.76C113.78,42.18,117.54,47.87,117.54,56.77Z" style="fill: rgb(235, 235, 235); transform-origin: 112.584px 77.795px;" id="ely8cznw7p3r" class="animable"></path></g><g id="freepik--Table--inject-150" class="animable" style="transform-origin: 375px 475.475px;"><polygon points="69.85 475.47 146.13 475.38 222.42 475.34 375 475.28 527.58 475.34 603.87 475.38 680.15 475.47 603.87 475.57 527.58 475.61 375 475.67 222.42 475.61 146.13 475.57 69.85 475.47" style="fill: rgb(38, 50, 56); transform-origin: 375px 475.475px;" id="elv04lcut0z" class="animable"></polygon></g><g id="freepik--Screen--inject-150" class="animable animator-active" style="transform-origin: 373.925px 250.04px;"><rect x="96.24" y="82.09" width="555.37" height="335.89" style="fill: rgb(235, 235, 235); transform-origin: 373.925px 250.035px;" id="elpsx2quv0ce" class="animable"></rect><rect x="96.24" y="82.09" width="555.37" height="54.73" style="fill: rgb(69, 90, 100); transform-origin: 373.925px 109.455px;" id="elouwfo9bidxh" class="animable"></rect><rect x="119.29" y="117.65" width="11.41" height="1.91" style="fill: rgb(255, 255, 255); transform-origin: 124.995px 118.605px;" id="eltzzm7rtacv" class="animable"></rect><rect x="119.29" y="126.19" width="11.41" height="1.91" style="fill: rgb(255, 255, 255); transform-origin: 124.995px 127.145px;" id="els3ahcycor7i" class="animable"></rect><rect x="119.29" y="121.97" width="11.41" height="1.91" style="fill: rgb(255, 255, 255); transform-origin: 124.995px 122.925px;" id="elwluu91mzpid" class="animable"></rect><g id="elv2o9lfeyu"><rect x="521.5" y="117.48" width="107.06" height="10.78" style="opacity: 0.1; transform-origin: 575.03px 122.87px;" class="animable"></rect></g><rect x="617.78" y="117.48" width="10.78" height="10.78" style="fill: rgb(255, 255, 255); transform-origin: 623.17px 122.87px;" id="eldsmv0js80p" class="animable"></rect><path d="M626.59,125.9l-1,.75-1.84-2.44-.68-.89a1.26,1.26,0,0,0,.39-.22,1.71,1.71,0,0,0,.51-.66l.72,1Z" style="fill: rgb(39, 255, 201); transform-origin: 624.83px 124.545px;" id="el9v9dadqjorf" class="animable"></path><path d="M624.63,120.16a2.72,2.72,0,1,0-.88,4,2.92,2.92,0,0,0,.37-.24,2.84,2.84,0,0,0,.57-.58A2.73,2.73,0,0,0,624.63,120.16Zm-1.17,2.94a1.26,1.26,0,0,1-.39.22,1.63,1.63,0,0,1-1.59-2.8,1.64,1.64,0,0,1,2.28.3,1.62,1.62,0,0,1,.21,1.62A1.71,1.71,0,0,1,623.46,123.1Z" style="fill: rgb(39, 255, 201); transform-origin: 622.447px 121.775px;" id="els7fh2fgvx3e" class="animable"></path><rect x="523.76" y="119.6" width="0.58" height="6.54" style="fill: rgb(255, 255, 255); transform-origin: 524.05px 122.87px;" id="el52nvc4x96ih" class="animable"></rect><path d="M225.37,128.6h-52.3V117.15h52.3Zm-51.3-1h50.3v-9.45h-50.3Z" style="fill: rgb(255, 255, 255); transform-origin: 199.22px 122.875px;" id="elblu4pnkg974" class="animable"></path><path d="M287.93,128.6H235.64V117.15h52.29Zm-51.29-1h50.29v-9.45H236.64Z" style="fill: rgb(255, 255, 255); transform-origin: 261.785px 122.875px;" id="elb46vm5u02p4" class="animable"></path><g id="ela83bx1jh4tp"><rect x="298.7" y="117.65" width="51.3" height="10.45" style="opacity: 0.1; transform-origin: 324.35px 122.875px;" class="animable"></rect></g><path d="M413.06,128.6H360.77V117.15h52.29Zm-51.29-1h50.29v-9.45H361.77Z" style="fill: rgb(255, 255, 255); transform-origin: 386.915px 122.875px;" id="elwfeeebav01k" class="animable"></path><path d="M475.63,128.6h-52.3V117.15h52.3Zm-51.3-1h50.3v-9.45h-50.3Z" style="fill: rgb(255, 255, 255); transform-origin: 449.48px 122.875px;" id="elr70mqt5e7xq" class="animable"></path><rect x="96.24" y="82.09" width="555.37" height="8.69" style="fill: rgb(38, 50, 56); transform-origin: 373.925px 86.435px;" id="ellcns3ze1chi" class="animable"></rect><path d="M103.15,86.44A2.16,2.16,0,1,1,101,84.28,2.15,2.15,0,0,1,103.15,86.44Z" style="fill: rgb(199, 199, 199); transform-origin: 100.99px 86.44px;" id="eleb5luvyn72t" class="animable"></path><path d="M112,86.44a2.16,2.16,0,1,1-2.16-2.16A2.16,2.16,0,0,1,112,86.44Z" style="fill: rgb(255, 255, 255); transform-origin: 109.84px 86.44px;" id="elgun01ney4fj" class="animable"></path><path d="M120.76,86.44a2.16,2.16,0,1,1-2.16-2.16A2.16,2.16,0,0,1,120.76,86.44Z" style="fill: rgb(39, 255, 201); transform-origin: 118.6px 86.44px;" id="elbhzsyim9eul" class="animable"></path><rect x="642.07" y="136.82" width="9.54" height="281.17" style="fill: rgb(219, 219, 219); transform-origin: 646.84px 277.405px;" id="el4n7mc0zftax" class="animable"></rect><path d="M646.83,234.29h0a2.31,2.31,0,0,1-2.46-2.11v-91.6a2.31,2.31,0,0,1,2.46-2.12h0a2.31,2.31,0,0,1,2.47,2.12v91.6A2.31,2.31,0,0,1,646.83,234.29Z" style="fill: rgb(166, 166, 166); transform-origin: 646.835px 186.375px;" id="elb4nqaz1zlz8" class="animable"></path><rect x="266.64" y="291.34" width="359.8" height="103.67" style="fill: rgb(255, 255, 255); transform-origin: 446.54px 343.175px;" id="elxl62rz6ntsi" class="animable"></rect><g id="el7nhb72twkvs"><rect x="456.33" y="308.83" width="68.82" height="68.82" style="fill: rgb(69, 90, 100); transform-origin: 490.74px 343.24px; transform: rotate(180deg);" class="animable"></rect></g><g id="eljra9dd6769k"><path d="M509.91,328.66a5.78,5.78,0,1,1-5.77-5.77A5.77,5.77,0,0,1,509.91,328.66Z" style="opacity: 0.1; transform-origin: 504.13px 328.67px;" class="animable"></path></g><g id="elub1evzkc8uh"><polygon points="464.41 363.6 517.07 363.6 504.19 343.04 497.24 350.25 483.02 332.13 464.41 363.6" style="opacity: 0.1; transform-origin: 490.74px 347.865px;" class="animable"></polygon></g><g id="el1jq1bbwpg9v"><rect x="539.59" y="308.83" width="68.82" height="68.82" style="fill: rgb(39, 255, 201); transform-origin: 574px 343.24px; transform: rotate(180deg);" class="animable"></rect></g><g id="elqmx2yedwsf"><path d="M593.17,328.66a5.78,5.78,0,1,1-5.77-5.77A5.77,5.77,0,0,1,593.17,328.66Z" style="opacity: 0.1; transform-origin: 587.39px 328.67px;" class="animable"></path></g><g id="elnmssgmlhwsi"><polygon points="547.67 363.6 600.33 363.6 587.44 343.04 580.5 350.25 566.28 332.13 547.67 363.6" style="opacity: 0.1; transform-origin: 574px 347.865px;" class="animable"></polygon></g><rect x="282.29" y="338.56" width="148.01" height="5.14" style="fill: rgb(199, 199, 199); transform-origin: 356.295px 341.13px;" id="elik42x1ncwxs" class="animable"></rect><rect x="282.29" y="349.88" width="148.01" height="5.14" style="fill: rgb(199, 199, 199); transform-origin: 356.295px 352.45px;" id="elh09pmxjfomo" class="animable"></rect><rect x="282.29" y="361.19" width="148.01" height="5.14" style="fill: rgb(199, 199, 199); transform-origin: 356.295px 363.76px;" id="elfj030y2wqkt" class="animable"></rect><rect x="282.29" y="372.51" width="148.01" height="5.14" style="fill: rgb(199, 199, 199); transform-origin: 356.295px 375.08px;" id="elmsbyue77gdd" class="animable"></rect><rect x="282.29" y="308.83" width="148.01" height="14.05" style="fill: rgb(39, 255, 201); transform-origin: 356.295px 315.855px;" id="el111gauzaf8c" class="animable"></rect><rect x="266.64" y="154.83" width="359.8" height="122.66" style="fill: rgb(255, 255, 255); transform-origin: 446.54px 216.16px;" id="el1gxt4av954v" class="animable"></rect><rect x="456.33" y="169.01" width="152.08" height="5.17" style="fill: rgb(199, 199, 199); transform-origin: 532.37px 171.595px;" id="el01694j5qhb15j" class="animable"></rect><rect x="456.33" y="180.38" width="152.08" height="5.17" style="fill: rgb(199, 199, 199); transform-origin: 532.37px 182.965px;" id="elc13pcqabbdr" class="animable"></rect><rect x="456.33" y="191.76" width="152.08" height="5.17" style="fill: rgb(199, 199, 199); transform-origin: 532.37px 194.345px;" id="elz2enmqc0ug" class="animable"></rect><rect x="456.33" y="203.14" width="152.08" height="5.17" style="fill: rgb(199, 199, 199); transform-origin: 532.37px 205.725px;" id="elyns9sl4vn" class="animable"></rect><rect x="456.33" y="218.27" width="152.08" height="5.17" style="fill: rgb(199, 199, 199); transform-origin: 532.37px 220.855px;" id="elgrl2kkuho2" class="animable"></rect><rect x="456.33" y="229.65" width="152.08" height="5.17" style="fill: rgb(199, 199, 199); transform-origin: 532.37px 232.235px;" id="elnjgyloranao" class="animable"></rect><g id="elkxbpt6swee8"><rect x="282.29" y="169.01" width="148.01" height="94.3" style="fill: rgb(39, 255, 201); transform-origin: 356.295px 216.16px; transform: rotate(180deg);" class="animable"></rect></g><g id="el0o2yn7zlzel"><path d="M375,196.88A10.91,10.91,0,1,1,364.05,186,10.92,10.92,0,0,1,375,196.88Z" style="opacity: 0.1; transform-origin: 364.09px 196.91px;" class="animable"></path></g><g id="eltsc6bj0t0ug"><polygon points="292.89 252.05 419.7 252.05 382.68 218.14 363.38 233.62 332.86 194.71 292.89 252.05" style="opacity: 0.1; transform-origin: 356.295px 223.38px;" class="animable"></polygon></g><rect x="456.33" y="249.25" width="152.08" height="14.05" style="fill: rgb(69, 90, 100); transform-origin: 532.37px 256.275px;" id="el40ughg21x1f" class="animable"></rect><rect x="121.46" y="154.83" width="130.98" height="240.19" style="fill: rgb(255, 255, 255); transform-origin: 186.95px 274.925px;" id="el3yud5w123ig" class="animable"></rect><rect x="137.54" y="169.01" width="24.4" height="24.4" style="fill: rgb(39, 255, 201); transform-origin: 149.74px 181.21px;" id="el08layjsu7rhu" class="animable"></rect><rect x="176.33" y="169.01" width="60.02" height="5.14" style="fill: rgb(199, 199, 199); transform-origin: 206.34px 171.58px;" id="elbq84fvc6w04" class="animable"></rect><rect x="176.33" y="180.32" width="60.02" height="5.14" style="fill: rgb(199, 199, 199); transform-origin: 206.34px 182.89px;" id="elcal75db9ubb" class="animable"></rect><rect x="137.54" y="211.25" width="24.4" height="24.4" style="fill: rgb(69, 90, 100); transform-origin: 149.74px 223.45px;" id="el8xer9dkdqhv" class="animable"></rect><rect x="176.33" y="211.25" width="60.02" height="5.14" style="fill: rgb(199, 199, 199); transform-origin: 206.34px 213.82px;" id="elwqog0bwk1ae" class="animable"></rect><rect x="176.33" y="222.56" width="60.02" height="5.14" style="fill: rgb(199, 199, 199); transform-origin: 206.34px 225.13px;" id="el5j2uzkxxka8" class="animable"></rect><rect x="137.54" y="253.49" width="24.4" height="24.4" style="fill: rgb(39, 255, 201); transform-origin: 149.74px 265.69px;" id="el2pm7v1ivhjg" class="animable"></rect><rect x="176.33" y="253.49" width="60.02" height="5.14" style="fill: rgb(199, 199, 199); transform-origin: 206.34px 256.06px;" id="elfui7s0w535n" class="animable"></rect><rect x="176.33" y="264.81" width="60.02" height="5.14" style="fill: rgb(199, 199, 199); transform-origin: 206.34px 267.38px;" id="eljby8oah397q" class="animable"></rect><rect x="137.54" y="295.73" width="24.4" height="24.4" style="fill: rgb(55, 71, 79); transform-origin: 149.74px 307.93px;" id="el3mbm9s9uv9h" class="animable"></rect><rect x="176.33" y="295.73" width="60.02" height="5.14" style="fill: rgb(199, 199, 199); transform-origin: 206.34px 298.3px;" id="el95wy7kvc16u" class="animable"></rect><rect x="176.33" y="307.05" width="60.02" height="5.14" style="fill: rgb(199, 199, 199); transform-origin: 206.34px 309.62px;" id="el9mmuwprb6ct" class="animable"></rect><rect x="137.54" y="338.56" width="98.81" height="5.14" style="fill: rgb(199, 199, 199); transform-origin: 186.945px 341.13px;" id="elis19a31szg" class="animable"></rect><rect x="137.54" y="349.88" width="98.81" height="5.14" style="fill: rgb(199, 199, 199); transform-origin: 186.945px 352.45px;" id="eln2w4m9r2qi" class="animable"></rect><rect x="137.54" y="361.19" width="98.81" height="5.14" style="fill: rgb(199, 199, 199); transform-origin: 186.945px 363.76px;" id="el1ygdtjrtn4r" class="animable"></rect><rect x="137.54" y="372.51" width="98.81" height="5.14" style="fill: rgb(199, 199, 199); transform-origin: 186.945px 375.08px;" id="elbgbfhnpvi9d" class="animable"></rect></g><g id="freepik--Bugs--inject-150" class="animable" style="transform-origin: 375px 274.718px;"><path d="M435.81,138.83l6.53-6.54V120.23h-3V131l-6.54,6.54a28.92,28.92,0,0,0-17.9,0L408.34,131V120.23h-3v12.06l6.53,6.54c-6.34,3.12-10.29,8.59-10.29,14.25h44.55C446.11,147.42,442.16,142,435.81,138.83Z" style="fill: rgb(39, 255, 201); transform-origin: 423.855px 136.655px;" id="elkzopkdhqja" class="animable"></path><path d="M446.48,153.46h-45.3v-.38c0-5.67,3.84-11.13,10-14.35L405,132.45V119.86h3.77v11l6.26,6.26a29.27,29.27,0,0,1,17.7,0l6.26-6.26v-11h3.78v12.59l-6.28,6.28c6.21,3.22,10,8.68,10,14.35Zm-44.54-.75h43.78c-.17-5.4-4-10.56-10.08-13.55l-.47-.23,6.8-6.79V120.61h-2.28V131.2L432.88,138l-.21-.08a28.58,28.58,0,0,0-17.67,0l-.22.08L408,131.2V120.61H405.7v11.53l6.79,6.79-.47.23C405.94,142.15,402.11,147.31,401.94,152.71Z" style="fill: rgb(38, 50, 56); transform-origin: 423.835px 136.66px;" id="el0dgctl036j4b" class="animable"></path><path d="M402.82,172h-11.1v3h11.8v0a35.38,35.38,0,0,0,2.91,7.51H400.6l-6.19,6.86,2.24,2,5.29-5.87h6.4a18.16,18.16,0,0,0,15.47,7.71,18.35,18.35,0,0,0,15.54-7.71h6.37l5.29,5.86,2.25-2-6.19-6.86H441.2a35.25,35.25,0,0,0,3-7.51v0h11.78v-3H444.86a55.36,55.36,0,0,0,1.07-8.35v0h5.69l6.05-10.38-2.61-1.52-5.17,8.88H446.1c0-2.59-.09-4.19-.09-4.19H401.66s-.12,1.6,0,4.19h-3.84l-5.17-8.88L390,153.26,396,163.64h5.7v0A56.8,56.8,0,0,0,402.82,172Zm19.72-11.72h2.59v27.13h-2.59Z" style="fill: rgb(39, 255, 201); transform-origin: 423.835px 172.48px;" id="el2ht0dk6qcvg" class="animable"></path><path d="M423.81,193.66A18.5,18.5,0,0,1,408.15,186h-6l-5.44,6-2.79-2.53,6.55-7.26h5.38a35.69,35.69,0,0,1-2.58-6.78H391.34v-3.78h11a56.8,56.8,0,0,1-1-7.61h-5.56l-6.35-10.89,3.26-1.9,5.25,9h3.25c-.06-2.35,0-3.78.05-3.84l0-.35h45.05l0,.35s.11,1.49.08,3.84h3.2l5.25-9,3.26,1.9L451.84,164h-5.56a56.74,56.74,0,0,1-1,7.61h11v3.78H444.46a37,37,0,0,1-2.63,6.78h5.4l6.56,7.26L451,192l-5.42-6h-6A18.71,18.71,0,0,1,423.81,193.66Zm-22-8.46h6.76l.11.16a17.82,17.82,0,0,0,15.17,7.55A18,18,0,0,0,439,185.36l.12-.16h6.73l5.14,5.71,1.7-1.51-5.83-6.46h-6.33l.3-.56a34.94,34.94,0,0,0,2.92-7.38v-.33h11.78v-2.28H444.4l.1-.45a55.29,55.29,0,0,0,1.05-8.29l0-.36h5.84l5.75-9.87-2-1.15L450.1,161h-4.39v-.38c0-1.85,0-3.21-.06-3.81H402c0,.6-.07,2,0,3.8V161h-4.45l-5.09-8.74-2,1.15,5.76,9.87h5.86v.37a55.05,55.05,0,0,0,1.07,8.29l.09.45H392.09v2.28h11.8V175a35.42,35.42,0,0,0,2.87,7.36l.3.55h-6.3l-5.82,6.46,1.68,1.52Zm23.73,2.59h-3.33V159.92h3.33Zm-2.58-.75h1.83V160.67h-1.83Z" style="fill: rgb(38, 50, 56); transform-origin: 423.755px 172.461px;" id="elbfj67835x3l" class="animable"></path><path d="M111.17,238.77l5.36-5.37v-9.9h-2.48v8.87l-5.37,5.37a23.67,23.67,0,0,0-14.7,0l-5.36-5.37V223.5H86.13v9.9l5.37,5.37c-5.21,2.56-8.46,7-8.46,11.7h36.58C119.62,245.82,116.38,241.33,111.17,238.77Z" style="fill: rgb(39, 255, 201); transform-origin: 101.33px 236.985px;" id="ell8elpxz0u1d" class="animable"></path><path d="M120,250.84H82.67v-.37c0-4.66,3.13-9.15,8.2-11.8l-5.11-5.11V223.12H89v9.1l5.09,5.09a24.23,24.23,0,0,1,14.5,0l5.09-5.09v-9.1h3.24v10.44l-5.11,5.11c5.07,2.65,8.2,7.14,8.2,11.8Zm-36.57-.75h35.81c-.17-4.37-3.29-8.56-8.24-11l-.47-.23,5.63-5.63v-9.37h-1.74v8.66l-5.64,5.64-.22-.08a23.5,23.5,0,0,0-14.46,0l-.22.08-5.64-5.64v-8.66H86.51v9.37l5.62,5.63-.47.23C86.72,241.53,83.6,245.72,83.43,250.09Z" style="fill: rgb(38, 50, 56); transform-origin: 101.34px 236.98px;" id="elkiv8ow5bpb" class="animable"></path><path d="M84.08,266H75v2.48h9.68a28.6,28.6,0,0,0,2.4,6.17H82.26l-5.09,5.64L79,282l4.35-4.82h5.25a16,16,0,0,0,25.46,0h5.24l4.33,4.81,1.85-1.65-5.08-5.64H115.6A29.12,29.12,0,0,0,118,268.5h9.67V266h-9.1a44.06,44.06,0,0,0,.87-6.86h4.68l5-8.53L127,249.37l-4.25,7.28h-3.11c0-2.12-.07-3.44-.07-3.44H83.13s-.1,1.32,0,3.44H79.94l-4.25-7.28-2.14,1.24,5,8.53H83.2A45.41,45.41,0,0,0,84.08,266Zm16.19-9.62h2.13v22.27h-2.13Z" style="fill: rgb(39, 255, 201); transform-origin: 101.335px 266.429px;" id="elxwvcknoq3q" class="animable"></path><path d="M101.32,283.86a15.27,15.27,0,0,1-12.9-6.34H83.53l-4.49,5-2.4-2.17,5.45-6h4.34a29.23,29.23,0,0,1-2.07-5.44H74.59v-3.23h9a47.23,47.23,0,0,1-.78-6.12H78.3l-5.26-9,2.79-1.63,4.33,7.43h2.55c0-1.89,0-3,0-3.1l0-.34h37.11l0,.34c0,.06.09,1.21.07,3.1h2.52l4.33-7.43,2.79,1.63-5.26,9h-4.54a47.17,47.17,0,0,1-.77,6.12h9v3.23h-9.75a29.83,29.83,0,0,1-2.1,5.44h4.36l5.44,6-2.4,2.15-4.48-5h-4.88A15.4,15.4,0,0,1,101.32,283.86Zm-18.13-7.09H88.8l.11.16a15.59,15.59,0,0,0,24.86,0l.11-.16h5.59l4.2,4.66,1.29-1.15-4.72-5.23H115l.3-.55a29.1,29.1,0,0,0,2.38-6.05v-.32l.38,0h9.29v-1.73h-9.18l.09-.45a45.35,45.35,0,0,0,.87-6.8l0-.35.35,0h4.47l4.66-8-1.49-.87L122.94,257h-3.71v-.38c0-1.46,0-2.54,0-3.06H83.48c0,.52,0,1.6,0,3l0,.39H79.73l-4.17-7.15-1.5.87,4.67,8h4.84v.38a45.46,45.46,0,0,0,.88,6.79l.09.45h-9.2v1.73H85v.38a28.89,28.89,0,0,0,2.35,6l.29.55H82.42l-4.72,5.23L79,281.44ZM102.77,279H99.9V256h2.87Zm-2.12-.75H102V256.76h-1.37Z" style="fill: rgb(38, 50, 56); transform-origin: 101.285px 266.399px;" id="elqirbkj4he8" class="animable"></path><path d="M664.18,177.74l3.67-3.66v-6.77h-1.7v6.06L662.48,177a16.38,16.38,0,0,0-10.05,0l-3.67-3.67v-6.06h-1.69v6.77l3.67,3.66c-3.57,1.75-5.78,4.82-5.78,8h25C670,182.56,667.74,179.49,664.18,177.74Z" style="fill: rgb(39, 255, 201); transform-origin: 657.46px 176.485px;" id="elw6162720kfi" class="animable"></path><path d="M670.33,186.12H644.58v-.37c0-3.19,2.1-6.26,5.53-8.1l-3.42-3.42v-7.3h2.45v6.29l3.4,3.39a16.83,16.83,0,0,1,9.84,0l3.4-3.39v-6.29h2.44v7.3l-3.41,3.42c3.42,1.84,5.52,4.91,5.52,8.1Zm-25-.75h24.23c-.16-2.9-2.26-5.67-5.55-7.29l-.48-.23,3.93-3.93v-6.24h-.94v5.85l-3.95,3.94-.22-.07a16,16,0,0,0-9.81,0l-.22.07-3.94-3.94v-5.85h-.95v6.24l3.93,3.93-.47.23C647.61,179.7,645.51,182.46,645.34,185.37Z" style="fill: rgb(38, 50, 56); transform-origin: 657.455px 176.525px;" id="elrgfl53oc2l8" class="animable"></path><path d="M645.66,196.37h-6.23v1.69h6.63a19.3,19.3,0,0,0,1.63,4.22h-3.27l-3.48,3.85,1.26,1.14,3-3.3h3.59a10.92,10.92,0,0,0,17.41,0h3.58l3,3.3,1.26-1.14-3.47-3.85h-3.29a19.5,19.5,0,0,0,1.66-4.22h6.61v-1.69h-6.22a31.21,31.21,0,0,0,.6-4.69h3.2l3.39-5.83L675,185l-2.9,5H670c0-1.45,0-2.35,0-2.35H645a23.23,23.23,0,0,0,0,2.35h-2.16l-2.9-5-1.47.85,3.4,5.83h3.2A32.56,32.56,0,0,0,645.66,196.37Zm11.07-6.58h1.46V205h-1.46Z" style="fill: rgb(39, 255, 201); transform-origin: 657.495px 196.648px;" id="eluv81ax8m3tn" class="animable"></path><path d="M657.45,208.69a10.56,10.56,0,0,1-8.88-4.33h-3.23l-3.11,3.45-1.82-1.64,3.84-4.25h2.83a19.43,19.43,0,0,1-1.31-3.48h-6.71V196h6.15a30.55,30.55,0,0,1-.5-3.94h-3.07L638,185.71l2.12-1.23,3,5.12h1.56c0-1.23,0-2,0-2l0-.34h25.58l0,.34s.06.78.05,2h1.54l3-5.12,2.11,1.23-3.69,6.34h-3.06a33.12,33.12,0,0,1-.49,3.94h6.14v2.45h-6.7a20.25,20.25,0,0,1-1.33,3.48h2.84l3.83,4.25-1.82,1.63-3.1-3.44h-3.23A10.64,10.64,0,0,1,657.45,208.69ZM645,203.61h4l.11.15a10.53,10.53,0,0,0,16.8,0l.12-.15h3.93l2.83,3.14.7-.63-3.11-3.45h-3.75l.3-.56A19.71,19.71,0,0,0,668.5,198v-.32h6.61v-.95H668.8l.1-.45a32,32,0,0,0,.59-4.63v-.35h3.34l3.1-5.32-.82-.48-2.82,4.85h-2.73V190c0-.9,0-1.59,0-2H645.37c0,.38,0,1.07,0,2v.39h-2.76l-2.83-4.85L639,186l3.09,5.32h3.37v.37a30.44,30.44,0,0,0,.59,4.62l.09.45h-6.31v.95h6.62v.37a20.28,20.28,0,0,0,1.59,4.06l.3.55h-3.74l-3.11,3.45.7.63Zm13.56,1.78h-2.2v-16h2.2Zm-1.45-.75h.7V190.17h-.7Z" style="fill: rgb(38, 50, 56); transform-origin: 657.48px 196.588px;" id="elxm7jla6rza" class="animable"></path><path d="M179.35,398.63,183,395v-6.77h-1.7v6.07l-3.67,3.66a16.38,16.38,0,0,0-10.05,0l-3.66-3.66v-6.07h-1.7V395l3.67,3.67c-3.57,1.75-5.78,4.82-5.78,8h25C185.13,403.45,182.92,400.38,179.35,398.63Z" style="fill: rgb(39, 255, 201); transform-origin: 172.61px 397.45px;" id="els3iaxv30kkb" class="animable"></path><path d="M185.51,407H159.75v-.37c0-3.19,2.11-6.25,5.53-8.1l-3.42-3.42v-7.3h2.45v6.29l3.4,3.4a16.67,16.67,0,0,1,9.84,0l3.4-3.4v-6.29h2.45v7.3L180,398.53c3.42,1.85,5.53,4.91,5.53,8.1Zm-25-.75h24.24c-.17-2.9-2.27-5.67-5.56-7.29l-.47-.23,3.93-3.93v-6.24h-1v5.85l-3.94,3.94-.22-.07a16,16,0,0,0-9.82,0l-.22.07-3.94-3.94v-5.85h-.95v6.24l3.93,3.93-.47.23C162.78,400.58,160.68,403.35,160.51,406.25Z" style="fill: rgb(38, 50, 56); transform-origin: 172.64px 397.405px;" id="elus5esxx5xlp" class="animable"></path><path d="M160.84,417.25H154.6V419h6.63a19.94,19.94,0,0,0,1.63,4.21h-3.27L156.11,427l1.26,1.13,3-3.29h3.59a10.93,10.93,0,0,0,17.41,0h3.58l3,3.29,1.27-1.13-3.48-3.86h-3.29A19.62,19.62,0,0,0,184,419h6.61v-1.7h-6.21a32.27,32.27,0,0,0,.59-4.69h3.2l3.39-5.82-1.46-.86-2.91,5h-2.12c0-1.46,0-2.36,0-2.36H160.19s-.07.9,0,2.36H158l-2.91-5-1.46.86,3.39,5.82h3.2A31.16,31.16,0,0,0,160.84,417.25Zm11.07-6.58h1.45V425.9h-1.45Z" style="fill: rgb(39, 255, 201); transform-origin: 172.605px 417.545px;" id="el2zq72pggdzu" class="animable"></path><path d="M172.62,429.57a10.57,10.57,0,0,1-8.88-4.33h-3.23l-3.11,3.45-1.82-1.64,3.84-4.25h2.83a21.08,21.08,0,0,1-1.31-3.48h-6.71v-2.45h6.15a32.16,32.16,0,0,1-.5-3.94h-3.06l-3.7-6.34,2.12-1.23,3,5.12h1.56c0-1.23,0-2,0-2l0-.34h25.59l0,.34s.06.78.06,2H187l3-5.12,2.12,1.23-3.7,6.34h-3.05a31,31,0,0,1-.5,3.94H191v2.45h-6.7A20.91,20.91,0,0,1,183,422.8h2.84l3.84,4.25-1.83,1.64-3.1-3.45h-3.22A10.67,10.67,0,0,1,172.62,429.57Zm-12.44-5.08h3.94l.11.16a10.55,10.55,0,0,0,16.81,0l.11-.15h3.93l2.83,3.14.71-.63-3.12-3.45h-3.75l.3-.55a19.59,19.59,0,0,0,1.62-4.09v-.33h6.61v-.95H184l.09-.45a32,32,0,0,0,.59-4.63l0-.35H188l3.1-5.32-.82-.48-2.82,4.85h-2.72v-.38c0-.9,0-1.59,0-2H160.54c0,.38,0,1.07,0,2v.39h-2.76L155,406.38l-.82.48,3.1,5.32h3.36v.37a31.41,31.41,0,0,0,.59,4.62l.09.45H155v.95h6.62V419a20.19,20.19,0,0,0,1.59,4.05l.3.55h-3.74L156.64,427l.7.63Zm13.55,1.78h-2.2v-16h2.2Zm-1.45-.75h.7V411.05h-.7Z" style="fill: rgb(38, 50, 56); transform-origin: 172.62px 417.468px;" id="elbk57tav8l6s" class="animable"></path></g><g id="freepik--Character--inject-150" class="animable" style="transform-origin: 517.336px 277.878px;"><path d="M577.47,475.67h90.25l.44-24.43c2.88-11.13,4.19-35.48,3-43.84a229.39,229.39,0,0,0-15.73-56.48l-2.25,0-70-.69S580.06,412.36,577.47,475.67Z" style="fill: rgb(38, 50, 56); transform-origin: 624.534px 412.95px;" id="elb7v45a5nisw" class="animable"></path><path d="M586.17,475.67h1.76q.15-7.41.31-14.82.16-7.59.38-15.16c0-.16,0-.33,0-.49.65-24,1.53-48,2.49-72,0-.33-.5-.32-.52,0C588.46,407.31,587.05,441.49,586.17,475.67Z" style="fill: rgb(55, 71, 79); transform-origin: 588.64px 424.313px;" id="elhihjvljspe9" class="animable"></path><path d="M505,475.67h95.14c6.13-16.08,10.86-28.3,12.17-31.68.07-.18.13-.34.17-.46.13-.32.19-.49.19-.49,2-1.1,4.33-2.28,6.61-3.4,5.14-2.53,10-4.72,10-4.72,22.59-35.14,24-84,24-84l-70-.69L545,349.83C537.58,377.55,510.17,461.69,505,475.67Z" style="fill: rgb(38, 50, 56); transform-origin: 579.14px 412.75px;" id="elz3h67vh62t" class="animable"></path><path d="M537.51,475.67H540c5.51-12.46,10.91-24.95,15.8-37.66,9.55-24.77,17.27-51.15,16.57-77.94a.2.2,0,1,0-.4,0c-.2,3.29-.48,6.59-.78,9.89-2.39,27-11.51,53.25-21.83,78.15C545.53,457.34,541.54,466.51,537.51,475.67Z" style="fill: rgb(55, 71, 79); transform-origin: 554.962px 417.77px;" id="el4qan1yphq4e" class="animable"></path><path d="M587.76,445.21a89.85,89.85,0,0,0,14.93-1.2c5-.88,9.64-2.49,14.49-3.87,4.59-1.3,9.47-1.46,14.18-2.17a49.66,49.66,0,0,0,13.93-4c.21-.1.38.21.17.31a86.53,86.53,0,0,1-13.36,5.64c-4.78,1.46-9.76,1.61-14.6,2.75s-9.79,2.73-14.9,3.27a53.45,53.45,0,0,1-14.89-.4C587.51,445.51,587.58,445.22,587.76,445.21Z" style="fill: rgb(55, 71, 79); transform-origin: 616.573px 440.115px;" id="eltalwra8fdm" class="animable"></path><path d="M598.71,475.67h2.78c1.6-4.41,3.17-8.82,4.67-13.24,2.1-6.15,4.4-12.23,6.15-18.45a3.31,3.31,0,0,0,.12-.45l.27-.94c0-.18-.27-.26-.35-.09-.26.55-.53,1.1-.78,1.66-3.13,6.65-5.63,13.48-8.39,20.22C601.65,468.14,600.17,471.9,598.71,475.67Z" style="fill: rgb(55, 71, 79); transform-origin: 605.705px 459.038px;" id="elbwhtuvagihn" class="animable"></path><path d="M614.53,211c27,16.59,73.17,64.2,70.7,77.78-4.55,25.06-66.1,49-78.31,54.65-5.21,2.41-18.85-44-13.34-46.66,4.8-2.35,39.07-11.81,39.42-16.38.14-1.89-15.83-25.51-28.74-53.45C594.37,205.52,606.55,206.05,614.53,211Z" style="fill: rgb(173, 99, 89); transform-origin: 638.809px 275.847px;" id="ell9do30nkqf" class="animable"></path><path d="M604,293.08s-5.16,2.31-18.83,4c-10.68,1.34-34.85,11.91-43,41-3.12,11.17,3.34,18.23,8.65,7.22,3.74-7.76,5.66-13.46,7.59-15.65,0,0,2.92,12.86,10,15.79a140.09,140.09,0,0,0,19,6.35,30.43,30.43,0,0,0,1.51-3.44,16.07,16.07,0,0,0,16.56-4.34l10.84-4.61Z" style="fill: rgb(173, 99, 89); transform-origin: 578.837px 322.435px;" id="elfowsa3il3q" class="animable"></path><path d="M576.37,301.12c-3.86,4.12-11.89,13-15.94,22.51-4.5,10.59-10.31,32.2-2.46,35.44,5.76,2.38,8.7-5.68,8.7-5.68s-.52,9.44,5.15,10.45c5.17.92,7.07-5.45,7.07-5.45s.67,5.78,5.82,5.71c6.19-.09,3.77-12.19,10-17.69C596.07,345.17,576.37,301.12,576.37,301.12Z" style="fill: rgb(173, 99, 89); transform-origin: 574.441px 332.61px;" id="el1x1u4if91r" class="animable"></path><path d="M572.41,326.52c-3,4.47-7.19,16.35-5.89,26.69,0,.23.23.33.24.11a113.06,113.06,0,0,1,5.75-26.76C572.53,326.5,572.45,326.47,572.41,326.52Z" style="fill: rgb(38, 50, 56); transform-origin: 569.395px 339.969px;" id="ela59r5r3nvlm" class="animable"></path><path d="M583,331.37c-2.19,4.12-6,16.57-4.29,27,0,.24.24.33.25.11a121.24,121.24,0,0,1,4.14-27.06C583.09,331.35,583,331.32,583,331.37Z" style="fill: rgb(38, 50, 56); transform-origin: 580.691px 344.975px;" id="elwmjglez529" class="animable"></path><path d="M604,293.08l14.17,50.41s68.94-32.23,68.05-57c-.59-16.22-45.57-59.39-66.13-73.14s-26-8.34-16.86,14.89,28.3,51.93,28.21,52.5S604,293.08,604,293.08Z" style="fill: rgb(39, 255, 201); transform-origin: 642.589px 274.688px;" id="elx7y0t0zd23f" class="animable"></path><path d="M607.63,291.51l19.23,53.95s60.25-34.2,59.36-59c-.59-16.22-45.57-59.39-66.13-73.14s-26-8.34-16.86,14.89,28.3,51.93,28.21,52.5S607.63,291.51,607.63,291.51Z" style="fill: rgb(39, 255, 201); transform-origin: 642.589px 275.658px;" id="el8ck1zd42c5h" class="animable"></path><g id="elvzg152qlztp"><path d="M603.24,228.2c9.15,23.19,28.2,51.81,28.2,52.5s-23.82,10.81-23.82,10.81l19.25,54s28.46-16.16,46-34.3L604.88,206C597.52,204.91,597,212.46,603.24,228.2Z" style="opacity: 0.1; transform-origin: 635.899px 275.703px;" class="animable"></path></g><path d="M579.93,231c7.26.94,19.78-12.2,23.68-21.48.26-.64-1.32-6.89-2.88-14.57-.92-4.67-1.85-9.88-2.34-14.71L568.9,190.7s4,9.8,4.83,18.21a10.28,10.28,0,0,1,0,2,3.22,3.22,0,0,0,0,.33C573.5,215.06,572.91,230.06,579.93,231Z" style="fill: rgb(173, 99, 89); transform-origin: 586.269px 205.644px;" id="eld7ap9d0tlzd" class="animable"></path><path d="M573.73,210.91c0,.08,0,.21,0,.34a19.08,19.08,0,0,0,3.13-.16c17.74-2.55,20.33-23,20.67-30.55L568.89,190.7s4,9.81,4.85,18.21A12.1,12.1,0,0,1,573.73,210.91Z" style="fill: rgb(38, 50, 56); transform-origin: 583.21px 195.9px;" id="elmta6ij622zd" class="animable"></path><path d="M603.58,144.91c3.45,10.74-1.8,42-9.37,49-11,10.23-29.15,11.45-37.89-1.79-8.48-12.83-.92-53.4,7.55-59.83C576.35,122.82,598.5,129.06,603.58,144.91Z" style="fill: rgb(173, 99, 89); transform-origin: 578.635px 164.821px;" id="el38snwmgrv" class="animable"></path><path d="M573.18,166.24c0-.08.15.12.14.21C573,168.56,573,171,574.8,172c.06,0,0,.14,0,.12C572.47,171.47,572.53,168.19,573.18,166.24Z" style="fill: rgb(38, 50, 56); transform-origin: 573.809px 169.172px;" id="eljfxnyq67rpn" class="animable"></path><path d="M575.34,164.26c3.43.16,2.87,7-.32,6.87S572.45,164.13,575.34,164.26Z" style="fill: rgb(38, 50, 56); transform-origin: 575.28px 167.695px;" id="elmkon67f6dkj" class="animable"></path><path d="M561.31,164.79c0-.08-.18.09-.18.17-.11,2.13-.59,4.56-2.57,5.1-.07,0-.07.13,0,.12C560.94,170.05,561.54,166.82,561.31,164.79Z" style="fill: rgb(38, 50, 56); transform-origin: 559.932px 167.475px;" id="elbvcxdqxh3l6" class="animable"></path><path d="M559.59,162.41c-3.4-.54-4.23,6.29-1.08,6.8S562.44,162.87,559.59,162.41Z" style="fill: rgb(38, 50, 56); transform-origin: 558.948px 165.808px;" id="el78i6ccymd03" class="animable"></path><path d="M578.78,163.53a24.34,24.34,0,0,1-2.82-.22,4.53,4.53,0,0,1-2.83-.77,1.45,1.45,0,0,1-.22-1.76,3.61,3.61,0,0,1,3.42-1.3,5.29,5.29,0,0,1,3.54,1.43A1.55,1.55,0,0,1,578.78,163.53Z" style="fill: rgb(38, 50, 56); transform-origin: 576.504px 161.48px;" id="elngi16kcyfuh" class="animable"></path><path d="M558,158.93c1-.08,1.84-.31,2.78-.48a4.6,4.6,0,0,0,2.75-1,1.46,1.46,0,0,0,.06-1.77,3.6,3.6,0,0,0-3.52-1,5.35,5.35,0,0,0-3.4,1.76A1.55,1.55,0,0,0,558,158.93Z" style="fill: rgb(38, 50, 56); transform-origin: 560.105px 156.748px;" id="el57om2wj6vz8" class="animable"></path><path d="M569,184.52c-.56.45-1.14,1.07-1.92,1a5.57,5.57,0,0,1-2.22-.78c-.07,0-.14,0-.1.1a2.88,2.88,0,0,0,2.56,1.45,2.27,2.27,0,0,0,1.87-1.7C569.28,184.52,569.12,184.46,569,184.52Z" style="fill: rgb(38, 50, 56); transform-origin: 566.982px 185.393px;" id="elgn1y1nui0c8" class="animable"></path><path d="M571.07,179a7.2,7.2,0,0,1-5.27,2.48,8.85,8.85,0,0,1-2.6-.26,2.42,2.42,0,0,1-.48-.13,4.59,4.59,0,0,1-.45-.14.54.54,0,0,1-.36-.54h0a.72.72,0,0,1,.05-.21v0l0-.18c.2-1.63.72-4.08.72-4.08-.63.21-3.86,1.12-3.69.28,1.47-7,3.09-14.71,6-21.32a.2.2,0,0,1,.38.11c-1.14,6.74-3.46,13.24-4.72,20a12.59,12.59,0,0,1,3.54-.52c.22.1-1.1,4.71-1.13,5.45a.45.45,0,0,0,0,.08c2.67.75,4.85.23,7.77-1.21C571.08,178.72,571.22,178.88,571.07,179Z" style="fill: rgb(38, 50, 56); transform-origin: 565.058px 168.137px;" id="ell5qaea8c7e" class="animable"></path><path d="M604,170.43c-8,.69-12.42-8.86-10.65-16.63,0,0-21.4,3.19-22.7-14a18.52,18.52,0,0,1-14.37,7.89L554.77,154c-2.21-.61-4.87-6.73.43-11.72,0,0,.24-8.59,6.48-13.84a11.73,11.73,0,0,1,12.59-2,17.75,17.75,0,0,1,12.88-3.4c7.92.89,11.29,8,11.29,8S609.09,133,611,140.54a15.66,15.66,0,0,1-1.89,12.64s2.71,2.92,1.46,9.38C609.79,166.72,606.44,170.22,604,170.43Z" style="fill: rgb(38, 50, 56); transform-origin: 581.843px 146.682px;" id="elve4ekxabiw" class="animable"></path><path d="M571.12,138.25a19.65,19.65,0,0,0,0,4.2,16.85,16.85,0,0,0,.84,4.06,10.83,10.83,0,0,0,5.06,6.1c2.34,1.45,5.2,1.64,7.94,1.86,1.39-.06,2.79,0,4.19-.17s2.79-.36,4.2-.5c-1.37.36-2.75.65-4.14,1s-2.83.3-4.25.45c-2.83-.07-5.83-.26-8.42-1.75a11.38,11.38,0,0,1-5.31-6.74A17.08,17.08,0,0,1,571.12,138.25Z" style="fill: rgb(38, 50, 56); transform-origin: 581.993px 146.75px;" id="elnom0gn4lij" class="animable"></path><path d="M560.22,148.37a22.33,22.33,0,0,0,6.45-3.6,13.86,13.86,0,0,0,2.47-2.66,16.9,16.9,0,0,0,1.75-3.29,9.17,9.17,0,0,1-1.1,3.69,10.18,10.18,0,0,1-2.48,3,12.49,12.49,0,0,1-3.35,2A11.57,11.57,0,0,1,560.22,148.37Z" style="fill: rgb(38, 50, 56); transform-origin: 565.555px 143.595px;" id="eloptsge4osab" class="animable"></path><path d="M574.11,179.1a9.81,9.81,0,0,1-6.9-12h0a9.8,9.8,0,1,1,9.32,12.35A9.67,9.67,0,0,1,574.11,179.1Zm-5.63-11.67a8.49,8.49,0,1,0,8.31-6.27A8.5,8.5,0,0,0,568.48,167.43Z" style="fill: rgb(39, 255, 201); transform-origin: 576.675px 169.651px;" id="elz8vxrkulfd" class="animable"></path><path d="M553.61,176.33c-4-.53-6.65-5.31-5.94-10.67a11.7,11.7,0,0,1,2.94-6.52A6.11,6.11,0,0,1,561,160.51a11.64,11.64,0,0,1,1.16,7.06c-.67,5.07-4.13,8.86-7.88,8.81C554,176.37,553.83,176.36,553.61,176.33Zm-2.05-16.28a10.44,10.44,0,0,0-2.6,5.78c-.61,4.64,1.55,8.77,4.82,9.2s6.44-3,7.05-7.63a10.4,10.4,0,0,0-1-6.26A5.23,5.23,0,0,0,556,158.2a4.19,4.19,0,0,0-.5,0A5.39,5.39,0,0,0,551.56,160.05Z" style="fill: rgb(39, 255, 201); transform-origin: 554.922px 166.605px;" id="el4p7rmz1yrj5" class="animable"></path><path d="M567.39,168.26l1-.89c-1.31-1.43-4.49-3.54-7.2-1.32l.83,1C564.4,165.07,567.27,168.13,567.39,168.26Z" style="fill: rgb(39, 255, 201); transform-origin: 564.79px 166.672px;" id="elf2s5c6189vb" class="animable"></path><path d="M607.33,176.47l1.24-.44c-.21-.57-2.11-5.64-5-6.49-2.65-.79-17.27-1.46-18-1.49l-.05,1.31c5.06.19,15.65.82,17.7,1.43C605.12,171.36,606.83,175.08,607.33,176.47Z" style="fill: rgb(39, 255, 201); transform-origin: 597.045px 172.26px;" id="eleesudppmojm" class="animable"></path><path d="M593.71,171.94s7.1-10,11.65-7.49-.82,17.1-6.2,19.07a5.45,5.45,0,0,1-7.29-3Z" style="fill: rgb(173, 99, 89); transform-origin: 599.471px 174.018px;" id="eloe3woj2f70c" class="animable"></path><path d="M603.72,168.58a.08.08,0,0,1,0,.15c-3.77,1.5-5.77,5-7.18,8.58,1.13-1.38,2.66-2.13,4.52-.79.09.07,0,.22-.11.2a3.35,3.35,0,0,0-3.7,1.15,16,16,0,0,0-1.78,3c-.18.33-.79.15-.66-.24l0-.09C594.8,175.73,598.56,169,603.72,168.58Z" style="fill: rgb(38, 50, 56); transform-origin: 599.282px 174.811px;" id="elpdhysc49u7" class="animable"></path><path d="M535.2,372.86l132.13,1.28c-.29-1.72-24.34-139-61.56-168.25-6.58-5.15-26.69,1-33,7.76C552.61,235.37,537.16,354.67,535.2,372.86Z" style="fill: rgb(39, 255, 201); transform-origin: 601.265px 289.058px;" id="elbc3gkztpoqs" class="animable"></path><path d="M584.26,231.69c-1.92,48.23-18.68,113-34.81,117.24-18,4.69-15.92-61.19-13.74-63,1.65-1.35,16.34-29.25,31-60.28S584.74,219.76,584.26,231.69Z" style="fill: rgb(173, 99, 89); transform-origin: 559.303px 279.952px;" id="elwgejw35x5s" class="animable"></path><path d="M535.45,285.76c2.45-4.26,23.26-46.1,32.22-63.33s17.18-16.73,17.54,8.2-5.5,75.94-20.9,103c-14.83,26.07-26.3,17.87-30-5.36C531.35,309.25,535.45,285.76,535.45,285.76Z" style="fill: rgb(39, 255, 201); transform-origin: 559.231px 280.166px;" id="el3ipkcp7ma4q" class="animable"></path><g id="elwdjg4g2r28"><rect x="447.99" y="223.98" width="11.78" height="74.05" style="fill: rgb(199, 199, 199); transform-origin: 453.88px 261.005px; transform: rotate(-197.526deg);" class="animable"></rect></g><polygon points="466.05 328.36 483.02 322.94 483.02 322.94 468.41 277.2 468.41 277.2 451.44 282.62 451.44 282.63 466.05 328.36" style="fill: rgb(38, 50, 56); transform-origin: 467.23px 302.78px;" id="el7nln7m0ilxn" class="animable"></polygon><g id="elz3111bv71gf"><g style="opacity: 0.4; transform-origin: 425.032px 156.847px;" class="animable"><path d="M387.74,209.35a64.4,64.4,0,1,1,48,11A64.37,64.37,0,0,1,387.74,209.35Z" style="fill: rgb(255, 255, 255); transform-origin: 425.032px 156.847px;" id="elwh0itbiz8cr" class="animable"></path></g></g><path d="M501.34,144.1a77,77,0,1,0-.17,26.93A76.94,76.94,0,0,0,501.34,144.1Zm-23.91,50.15a64.38,64.38,0,1,1,11-48A64.39,64.39,0,0,1,477.43,194.25Z" style="fill: rgb(38, 50, 56); transform-origin: 425.443px 157.086px;" id="elq84plbvp40q" class="animable"></path><g id="elb6wpraepus"><path d="M372.21,163a49.15,49.15,0,0,1,1.52-20.38,52.47,52.47,0,0,1,3.79-9.78,56.41,56.41,0,0,1,5.74-8.92,51.63,51.63,0,0,1,16.48-13.37,56.82,56.82,0,0,1,20.06-6,102.21,102.21,0,0,0-18.33,8.88,62.5,62.5,0,0,0-7.93,6,51.85,51.85,0,0,0-6.79,7.11,63.55,63.55,0,0,0-9.73,17A82.92,82.92,0,0,0,372.21,163Z" style="fill: rgb(255, 255, 255); opacity: 0.3; transform-origin: 395.781px 133.775px;" class="animable"></path></g><g id="eljv4qf7a8mv"><path d="M475,167.52a49.46,49.46,0,0,1-7,19.2,52.45,52.45,0,0,1-6.32,8.36,55.41,55.41,0,0,1-8,7,51.32,51.32,0,0,1-19.51,8.36,56.85,56.85,0,0,1-20.92.25,101.29,101.29,0,0,0,20.06-3.54,62.21,62.21,0,0,0,9.27-3.6,52.4,52.4,0,0,0,8.47-5,63.74,63.74,0,0,0,14-13.72A83,83,0,0,0,475,167.52Z" style="fill: rgb(255, 255, 255); opacity: 0.3; transform-origin: 444.125px 189.53px;" class="animable"></path></g><path d="M549.64,349.51c-13.7,1.77-28.6-10.7-72.58-43.36-6.08-4.52,13.79-57.84,20.54-53.35,8.5,5.66,40.25,29.45,42.35,31.49C557.68,301.44,558.93,348.31,549.64,349.51Z" style="fill: rgb(173, 99, 89); transform-origin: 515.634px 301.103px;" id="elzarnyork4bk" class="animable"></path><path d="M516.56,267.45s-5.86-3.28-17.18-15.12c-8.85-9.25-36.09-24.81-69.67-11.93-12.87,4.93-15,16.11-.75,13.36,10.06-1.93,16.86-4.14,20.32-3.85,0,0-10.2,11.9-8,20.72a167.84,167.84,0,0,0,7.41,22.61,36,36,0,0,0,4.35-1A19.09,19.09,0,0,0,468.92,305l19.2,3.81Z" style="fill: rgb(173, 99, 89); transform-origin: 467.848px 272.156px;" id="ellonchb62mk" class="animable"></path><path d="M489.29,246.8c-6.66-.77-20.81-2.15-32.78.75-13.3,3.22-38,13-35.56,22.79,1.81,7.18,11.59,4.27,11.59,4.27s-9.38,6.2-6.32,12.33c2.79,5.58,10.22,2.88,10.22,2.88s-5,4.74-1.32,9.6c4.47,5.84,14.3-5.05,23.95-3C461.23,296.83,489.29,246.8,489.29,246.8Z" style="fill: rgb(173, 99, 89); transform-origin: 455.036px 273.475px;" id="elw6syk88fal" class="animable"></path><path d="M462.25,261c-6.39.31-20.71,4.73-29.64,13.31-.2.19-.16.45.06.31a134.15,134.15,0,0,1,29.61-13.49A.07.07,0,0,0,462.25,261Z" style="fill: rgb(38, 50, 56); transform-origin: 447.397px 267.83px;" id="elgmb9kt4xr8h" class="animable"></path><path d="M465.11,274.54c-5.48.84-20,6.06-28.79,15.06-.2.2-.14.45.07.31a144.25,144.25,0,0,1,28.76-15.24C465.22,274.64,465.18,274.53,465.11,274.54Z" style="fill: rgb(38, 50, 56); transform-origin: 450.692px 282.245px;" id="elwscamvowsuh" class="animable"></path><path d="M516.78,262.85,495.37,327s40.88,26,54.64,23c9-2,9.27-49.89-11.76-67.35Z" style="fill: rgb(39, 255, 201); transform-origin: 525.593px 306.546px;" id="elyqbyj1e0rnj" class="animable"></path><path d="M553.68,312.26c-.6-5.35-3.42-19.41-15.43-29.67-.1-.09-.27.05-.17.16,8.2,8.51,14.37,24.46,15.39,29.57C553.49,312.45,553.7,312.4,553.68,312.26Z" style="fill: rgb(38, 50, 56); transform-origin: 545.865px 297.478px;" id="elag4a1tfq9m" class="animable"></path><path d="M510.61,331.4c2.65-6.84,4.93-13.8,7.19-20.76s4.54-13.92,6.62-20.94c1.18-4,2.39-7.92,3.43-11.92,0-.1-.15-.17-.19-.06-2.65,6.82-5,13.78-7.26,20.71s-4.55,13.93-6.72,20.93c-1.22,3.95-2.38,7.92-3.42,11.92C510.21,331.47,510.53,331.6,510.61,331.4Z" style="fill: rgb(38, 50, 56); transform-origin: 519.052px 304.582px;" id="el7xqw6s1h7yh" class="animable"></path><path d="M516.65,262.27c2.64,1.48,14.18,10.66,26.3,25,.08.09,1.24,3.54,1.16,3.45-9.71-11.77-25.26-25.22-27.49-27.34a5.84,5.84,0,0,1-.24.66c-.07.15-.32.17-.35,0-.06-.46,0-.88,0-1.34A.44.44,0,0,1,516.65,262.27Z" style="fill: rgb(38, 50, 56); transform-origin: 530.059px 276.476px;" id="el8ui686vj18a" class="animable"></path><path d="M496.86,322.5,495.48,327l-.05-.14c12.2,7.27,24.79,14.28,38.19,19,4.93,1.56,10.13,3.25,15.28,2.45,8.21-2,13.05-11.76,16.65-18.8,6.12-12.79,10-26.6,13.37-40.42A323.08,323.08,0,0,0,586.21,247a259.27,259.27,0,0,1-5.82,42.48c-3.06,14-7,27.88-13,40.94-3.8,7.5-9.19,17.68-18.12,19.71-5.53.81-11-.92-16.13-2.7-13.45-5.09-25.86-12.39-37.79-20.31l-.07-.05,0-.09,1.6-4.44Z" style="fill: rgb(38, 50, 56); transform-origin: 540.745px 298.668px;" id="ela0h7klr24z" class="animable"></path><path d="M587.59,248.62a10.49,10.49,0,0,1-2.13,7.12,16.29,16.29,0,0,0,2.13-7.12Z" style="fill: rgb(38, 50, 56); transform-origin: 586.538px 252.18px;" id="elbo4y5s3nbtb" class="animable"></path></g><g id="freepik--speech-bubble--inject-150" class="animable" style="transform-origin: 642.141px 87.625px;"><polygon points="591.72 50.92 591.72 109.67 599.97 109.67 599.97 123.92 614.22 109.67 692.42 109.67 692.42 50.92 591.72 50.92" style="fill: rgb(255, 255, 255); transform-origin: 642.07px 87.42px;" id="elclcr51ykse7" class="animable"></polygon><path d="M591.72,50.92l.15,29.44Q592,95,592,109.67l-.28-.28,8.24,0h.3v.3l0,14.25-.55-.23L614,109.41l.1-.11h.16c23,0,55.5-.14,78.2-.11l-.48.48.12-58.75.36.36c-25.1,0-75.6-.23-100.7-.36Zm0,0c25.09-.13,75.61-.35,100.7-.37h.36v.37l.11,58.75v.48h-.48c-22.58.06-55.28-.11-78.2-.12l.25-.11-14.28,14.23-.55.55v-.78l0-14.25.29.29h-8.52c-.06-17.19.25-41.63.28-59Z" style="fill: rgb(38, 50, 56); transform-origin: 642.141px 87.625px;" id="elecbu0o9d73d" class="animable"></path><path d="M635.44,90.93l9.39-22.35a2.13,2.13,0,0,1,2.8-1.11,2.07,2.07,0,0,1,1.07,2.72l-9.39,22.39a2.14,2.14,0,0,1-2,1.26,1.87,1.87,0,0,1-.76-.15A2.08,2.08,0,0,1,635.44,90.93Z" style="fill: rgb(39, 255, 201); transform-origin: 642.067px 80.5679px;" id="ellcpdz06fjt" class="animable"></path><path d="M628.55,89.7a2.42,2.42,0,0,1-1.69,4.14,2.56,2.56,0,0,1-1.76-.69L614.33,82.23a.28.28,0,0,1-.19-.23.58.58,0,0,0-.12-.08.77.77,0,0,1-.11-.31.2.2,0,0,1-.12-.15c0-.08,0-.19-.07-.23s-.09-.15-.09-.19v-.27c0-.08,0-.12,0-.23s0-.16,0-.19v-.27c0-.08.09-.12.09-.16s0-.19.07-.3,0,0,0-.08.11-.27.19-.34a.08.08,0,0,1,.08-.08.69.69,0,0,1,.23-.27L625.1,67.93a2.5,2.5,0,0,1,3.45,0,2.43,2.43,0,0,1,0,3.45l-9.08,9.16Z" style="fill: rgb(39, 255, 201); transform-origin: 621.449px 80.5398px;" id="ela8ltqxs8bp" class="animable"></path><path d="M670.12,81.92a0,0,0,0,1,0,0,2.28,2.28,0,0,1-.27.27L659,93.15a2.5,2.5,0,0,1-3.45,0,2.43,2.43,0,0,1,0-3.45l9.08-9.16-9.08-9.16a2.43,2.43,0,0,1,0-3.45,2.5,2.5,0,0,1,3.45,0l10.77,10.92a1.72,1.72,0,0,1,.27.27s0,.08,0,.08.15.23.19.34,0,0,0,.08a2.6,2.6,0,0,0,.11.34s0,0,0,.12v.27s0,.15,0,.19,0,.15,0,.19V81s0,0,0,.07-.07.27-.11.35,0,0,0,.11S670.19,81.77,670.12,81.92Z" style="fill: rgb(39, 255, 201); transform-origin: 662.586px 80.54px;" id="elqtsy7wxonlm" class="animable"></path></g><defs>     <filter id="active" height="200%">         <feMorphology in="SourceAlpha" result="DILATED" operator="dilate" radius="2"></feMorphology>                <feFlood flood-color="#32DFEC" flood-opacity="1" result="PINK"></feFlood>        <feComposite in="PINK" in2="DILATED" operator="in" result="OUTLINE"></feComposite>        <feMerge>            <feMergeNode in="OUTLINE"></feMergeNode>            <feMergeNode in="SourceGraphic"></feMergeNode>        </feMerge>    </filter>    <filter id="hover" height="200%">        <feMorphology in="SourceAlpha" result="DILATED" operator="dilate" radius="2"></feMorphology>                <feFlood flood-color="#ff0000" flood-opacity="0.5" result="PINK"></feFlood>        <feComposite in="PINK" in2="DILATED" operator="in" result="OUTLINE"></feComposite>        <feMerge>            <feMergeNode in="OUTLINE"></feMergeNode>            <feMergeNode in="SourceGraphic"></feMergeNode>        </feMerge>            <feColorMatrix type="matrix" values="0   0   0   0   0                0   1   0   0   0                0   0   0   0   0                0   0   0   1   0 "></feColorMatrix>    </filter></defs></svg>